# xmcd
#
# Track frame offsets:
#	150
#	22532
#	43607
#	65995
#	87615
#	106325
#	131615
#	155290
#	178680
#	197170
#	219017
#	239650
#	259300
#	280800
#
# Disc length: 3961 seconds
#
# Revision: 1
# Processed by: cddbd v1.5.1PL0 Copyright (c) Steve Scherf et al.
# Submitted via: CDex 1.50Beta5
#
DISCID=c70f770e
DTITLE=井口慎也 - うしおととら〜ボーカル・コレクション〜
DYEAR=1993
DGENRE=
TTITLE0=井口慎也/獣の槍
TTITLE1=佐々木望/Dear My Best Friend
TTITLE2=YASU/英雄不要論序説
TTITLE3=佐々木望/獣を見たよ
TTITLE4=天野由梨/ブギ・ウギ・モンスター
TTITLE5=三浦秀美/パンドラの箱
TTITLE6=YASU/サイレンスの下で…
TTITLE7=YASU/悲しみの逆襲
TTITLE8=佐々木望/妖怪退治心得マーチ
TTITLE9=三浦秀美/幻になるまで
TTITLE10=佐々木望/誰かがおまえを狙ってる
TTITLE11=井口慎也/Resurrection
TTITLE12=SATOKO/風と雪の化身
TTITLE13=YASU/勇気のファイター
EXTD=
EXTT0=
EXTT1=
EXTT2=
EXTT3=
EXTT4=
EXTT5=
EXTT6=
EXTT7=
EXTT8=
EXTT9=
EXTT10=
EXTT11=
EXTT12=
EXTT13=
PLAYORDER=
